<svg width="64" height="64" viewBox="0 0 64 64" fill="none" xmlns="http://www.w3.org/2000/svg">
  <rect width="64" height="64" rx="18" fill="#07171A"/>
  <path d="M18 43V21H26.8C31.9 21 35 23.9 35 28.2C35 31.1 33.5 33.4 30.8 34.5L36.4 43H29.9L25.2 35.2H23.8V43H18ZM23.8 30.7H26.3C28.7 30.7 29.8 29.7 29.8 28.1C29.8 26.6 28.7 25.6 26.4 25.6H23.8V30.7Z" fill="#7DD3CF"/>
  <path d="M39 43V21H48.8C54.1 21 57 24 57 28.6C57 33.2 54 36.1 48.7 36.1H44.8V43H39ZM44.8 31.9H48.3C50.6 31.9 51.8 30.9 51.8 28.7C51.8 26.6 50.6 25.6 48.3 25.6H44.8V31.9Z" fill="#F5F0E8"/>
</svg>
